<svg xmlns="http://www.w3.org/2000/svg" xmlns:xlink="http://www.w3.org/1999/xlink" width="1080" zoomAndPan="magnify" viewBox="0 0 810 809.999993" height="1080" preserveAspectRatio="xMidYMid meet" version="1.0"><defs><clipPath id="488aa48364"><path d="M 13.351562 356.910156 L 796.667969 356.910156 L 796.667969 453.089844 L 13.351562 453.089844 Z M 13.351562 356.910156 " clip-rule="nonzero"/></clipPath><clipPath id="3d1a8044ed"><path d="M 34.351562 356.910156 L 775.648438 356.910156 C 787.246094 356.910156 796.648438 366.3125 796.648438 377.910156 L 796.648438 432.089844 C 796.648438 443.6875 787.246094 453.089844 775.648438 453.089844 L 34.351562 453.089844 C 22.753906 453.089844 13.351562 443.6875 13.351562 432.089844 L 13.351562 377.910156 C 13.351562 366.3125 22.753906 356.910156 34.351562 356.910156 Z M 34.351562 356.910156 " clip-rule="nonzero"/></clipPath><clipPath id="a10cd991d3"><path d="M 628.386719 356.910156 L 796.695312 356.910156 L 796.695312 453.089844 L 628.386719 453.089844 Z M 628.386719 356.910156 " clip-rule="nonzero"/></clipPath><clipPath id="f0f7f87035"><path d="M 649.386719 356.910156 L 775.648438 356.910156 C 787.246094 356.910156 796.648438 366.3125 796.648438 377.910156 L 796.648438 432.089844 C 796.648438 443.6875 787.246094 453.089844 775.648438 453.089844 L 649.386719 453.089844 C 637.789062 453.089844 628.386719 443.6875 628.386719 432.089844 L 628.386719 377.910156 C 628.386719 366.3125 637.789062 356.910156 649.386719 356.910156 Z M 649.386719 356.910156 " clip-rule="nonzero"/></clipPath><clipPath id="cc19ad6a14"><path d="M 628.386719 356.910156 L 671.523438 356.910156 L 671.523438 453.089844 L 628.386719 453.089844 Z M 628.386719 356.910156 " clip-rule="nonzero"/></clipPath><clipPath id="dec249e8b0"><path d="M 31.949219 385.714844 L 58.199219 385.714844 L 58.199219 423.964844 L 31.949219 423.964844 Z M 31.949219 385.714844 " clip-rule="nonzero"/></clipPath><clipPath id="de20ce2647"><path d="M 227.460938 385.714844 L 253.710938 385.714844 L 253.710938 423.964844 L 227.460938 423.964844 Z M 227.460938 385.714844 " clip-rule="nonzero"/></clipPath><clipPath id="e9f20ac00e"><path d="M 442.605469 385.714844 L 479.355469 385.714844 L 479.355469 423.964844 L 442.605469 423.964844 Z M 442.605469 385.714844 " clip-rule="nonzero"/></clipPath></defs><g clip-path="url(#488aa48364)"><g clip-path="url(#3d1a8044ed)"><path fill="#ffffff" d="M 13.351562 356.910156 L 796.667969 356.910156 L 796.667969 453.089844 L 13.351562 453.089844 Z M 13.351562 356.910156 " fill-opacity="1" fill-rule="nonzero"/></g></g><path stroke-linecap="butt" transform="matrix(0, -0.75, 0.75, 0, 207.731609, 453.087885)" fill="none" stroke-linejoin="miter" d="M 0.00259694 0.49848 L 128.236978 0.49848 " stroke="#a6a6a6" stroke-width="1" stroke-opacity="1" stroke-miterlimit="4"/><path stroke-linecap="butt" transform="matrix(0, -0.75, 0.75, 0, 422.873694, 453.087885)" fill="none" stroke-linejoin="miter" d="M 0.00259694 0.501741 L 128.236978 0.501741 " stroke="#a6a6a6" stroke-width="1" stroke-opacity="1" stroke-miterlimit="4"/><g clip-path="url(#a10cd991d3)"><g clip-path="url(#f0f7f87035)"><path fill="#ffcb7d" d="M 628.386719 356.910156 L 796.695312 356.910156 L 796.695312 453.089844 L 628.386719 453.089844 Z M 628.386719 356.910156 " fill-opacity="1" fill-rule="nonzero"/></g></g><g clip-path="url(#cc19ad6a14)"><path fill="#ffcb7d" d="M 628.386719 356.910156 L 671.523438 356.910156 L 671.523438 453.125 L 628.386719 453.125 Z M 628.386719 356.910156 " fill-opacity="1" fill-rule="nonzero"/></g><g clip-path="url(#dec249e8b0)"><path fill="#545454" d="M 45.179688 385.730469 C 52.484375 385.730469 58.410156 391.65625 58.410156 398.960938 C 58.410156 401.503906 57.691406 403.878906 56.449219 405.894531 C 54.957031 408.367188 53.464844 410.835938 51.976562 413.304688 C 50.160156 416.257812 48.691406 418.648438 46.875 421.597656 C 45.273438 424.203125 45.164062 424.265625 43.554688 421.648438 C 41.75 418.710938 40.230469 416.242188 38.421875 413.304688 C 36.9375 410.863281 35.449219 408.421875 33.960938 405.980469 C 32.6875 403.945312 31.949219 401.539062 31.949219 398.960938 C 31.949219 391.65625 37.871094 385.730469 45.179688 385.730469 Z M 45.179688 392.367188 C 48.453125 392.367188 51.109375 395.019531 51.109375 398.296875 C 51.109375 401.574219 48.453125 404.226562 45.179688 404.226562 C 41.902344 404.226562 39.246094 401.574219 39.246094 398.296875 C 39.246094 395.019531 41.902344 392.367188 45.179688 392.367188 Z M 45.179688 392.367188 " fill-opacity="1" fill-rule="evenodd"/></g><g clip-path="url(#de20ce2647)"><path fill="#ffa010" d="M 240.691406 385.730469 C 248 385.730469 253.921875 391.65625 253.921875 398.960938 C 253.921875 401.503906 253.207031 403.878906 251.960938 405.894531 C 250.472656 408.367188 248.980469 410.835938 247.488281 413.304688 C 245.671875 416.257812 244.203125 418.648438 242.386719 421.597656 C 240.785156 424.203125 240.679688 424.265625 239.070312 421.648438 C 237.261719 418.710938 235.742188 416.242188 233.9375 413.304688 C 232.449219 410.863281 230.960938 408.421875 229.472656 405.980469 C 228.199219 403.945312 227.460938 401.539062 227.460938 398.960938 C 227.460938 391.65625 233.386719 385.730469 240.691406 385.730469 Z M 240.691406 392.367188 C 243.96875 392.367188 246.625 395.019531 246.625 398.296875 C 246.625 401.574219 243.96875 404.226562 240.691406 404.226562 C 237.417969 404.226562 234.761719 401.574219 234.761719 398.296875 C 234.761719 395.019531 237.417969 392.367188 240.691406 392.367188 Z M 240.691406 392.367188 " fill-opacity="1" fill-rule="evenodd"/></g><g clip-path="url(#e9f20ac00e)"><path fill="#000000" d="M 472.714844 389.542969 L 470.929688 389.542969 L 470.929688 386.890625 C 470.929688 386.25 470.40625 385.738281 469.769531 385.738281 C 469.128906 385.738281 468.609375 386.257812 468.609375 386.890625 L 468.609375 389.546875 L 452.679688 389.546875 L 452.679688 386.890625 C 452.679688 386.25 452.160156 385.738281 451.523438 385.738281 C 450.878906 385.738281 450.363281 386.257812 450.363281 386.890625 L 450.363281 389.546875 L 449.238281 389.546875 C 445.574219 389.546875 442.605469 392.496094 442.605469 396.140625 L 442.605469 417.347656 C 442.605469 420.992188 445.574219 423.941406 449.238281 423.941406 L 472.714844 423.941406 C 476.378906 423.941406 479.347656 420.992188 479.347656 417.347656 L 479.347656 396.140625 C 479.355469 392.496094 476.378906 389.542969 472.714844 389.542969 Z M 468.605469 390.761719 L 468.605469 393.15625 C 468.605469 393.792969 469.128906 394.308594 469.765625 394.308594 C 470.40625 394.308594 470.925781 393.789062 470.925781 393.15625 L 470.925781 390.851562 C 471.667969 391.277344 472.167969 392.078125 472.167969 392.992188 C 472.167969 394.359375 471.054688 395.46875 469.679688 395.46875 C 468.304688 395.46875 467.1875 394.359375 467.1875 392.992188 C 467.199219 392.007812 467.773438 391.160156 468.605469 390.761719 Z M 450.359375 390.804688 L 450.359375 393.15625 C 450.359375 393.792969 450.878906 394.308594 451.515625 394.308594 C 452.160156 394.308594 452.675781 393.789062 452.675781 393.15625 L 452.675781 390.804688 C 453.464844 391.21875 454.003906 392.039062 454.003906 392.988281 C 454.003906 394.355469 452.886719 395.464844 451.511719 395.464844 C 450.136719 395.464844 449.023438 394.355469 449.023438 392.988281 C 449.03125 392.039062 449.574219 391.21875 450.359375 390.804688 Z M 477.03125 417.34375 C 477.03125 419.710938 475.097656 421.628906 472.71875 421.628906 L 449.238281 421.628906 C 446.855469 421.628906 444.925781 419.707031 444.925781 417.34375 L 444.925781 399.777344 L 477.03125 399.777344 Z M 477.03125 417.34375 " fill-opacity="1" fill-rule="nonzero"/></g><path fill="#000000" d="M 452.714844 406.429688 L 449.5 406.429688 C 449.242188 406.429688 449.03125 406.21875 449.03125 405.960938 L 449.03125 402.765625 C 449.03125 402.511719 449.242188 402.300781 449.5 402.300781 L 452.714844 402.300781 C 452.972656 402.300781 453.183594 402.511719 453.183594 402.765625 L 453.183594 405.960938 C 453.179688 406.21875 452.972656 406.429688 452.714844 406.429688 Z M 452.714844 406.429688 " fill-opacity="1" fill-rule="nonzero"/><path fill="#000000" d="M 452.714844 412.980469 L 449.5 412.980469 C 449.242188 412.980469 449.03125 412.769531 449.03125 412.511719 L 449.03125 409.316406 C 449.03125 409.0625 449.242188 408.851562 449.5 408.851562 L 452.714844 408.851562 C 452.972656 408.851562 453.183594 409.0625 453.183594 409.316406 L 453.183594 412.511719 C 453.179688 412.773438 452.972656 412.980469 452.714844 412.980469 Z M 452.714844 412.980469 " fill-opacity="1" fill-rule="nonzero"/><path fill="#000000" d="M 452.714844 419.535156 L 449.5 419.535156 C 449.242188 419.535156 449.03125 419.324219 449.03125 419.066406 L 449.03125 415.875 C 449.03125 415.617188 449.242188 415.40625 449.5 415.40625 L 452.714844 415.40625 C 452.972656 415.40625 453.183594 415.617188 453.183594 415.875 L 453.183594 419.074219 C 453.179688 419.324219 452.972656 419.535156 452.714844 419.535156 Z M 452.714844 419.535156 " fill-opacity="1" fill-rule="nonzero"/><path fill="#000000" d="M 459.304688 406.429688 L 456.089844 406.429688 C 455.832031 406.429688 455.621094 406.21875 455.621094 405.960938 L 455.621094 402.765625 C 455.621094 402.511719 455.832031 402.300781 456.089844 402.300781 L 459.304688 402.300781 C 459.5625 402.300781 459.773438 402.511719 459.773438 402.765625 L 459.773438 405.960938 C 459.773438 406.21875 459.5625 406.429688 459.304688 406.429688 Z M 459.304688 406.429688 " fill-opacity="1" fill-rule="nonzero"/><path fill="#000000" d="M 459.304688 412.980469 L 456.089844 412.980469 C 455.832031 412.980469 455.621094 412.769531 455.621094 412.511719 L 455.621094 409.316406 C 455.621094 409.0625 455.832031 408.851562 456.089844 408.851562 L 459.304688 408.851562 C 459.5625 408.851562 459.773438 409.0625 459.773438 409.316406 L 459.773438 412.511719 C 459.773438 412.773438 459.5625 412.980469 459.304688 412.980469 Z M 459.304688 412.980469 " fill-opacity="1" fill-rule="nonzero"/><path fill="#000000" d="M 459.304688 419.535156 L 456.089844 419.535156 C 455.832031 419.535156 455.621094 419.324219 455.621094 419.066406 L 455.621094 415.875 C 455.621094 415.617188 455.832031 415.40625 456.089844 415.40625 L 459.304688 415.40625 C 459.5625 415.40625 459.773438 415.617188 459.773438 415.875 L 459.773438 419.074219 C 459.773438 419.324219 459.5625 419.535156 459.304688 419.535156 Z M 459.304688 419.535156 " fill-opacity="1" fill-rule="nonzero"/><path fill="#000000" d="M 465.898438 406.429688 L 462.6875 406.429688 C 462.425781 406.429688 462.214844 406.21875 462.214844 405.960938 L 462.214844 402.765625 C 462.214844 402.511719 462.425781 402.300781 462.6875 402.300781 L 465.898438 402.300781 C 466.160156 402.300781 466.371094 402.511719 466.371094 402.765625 L 466.371094 405.960938 C 466.363281 406.21875 466.160156 406.429688 465.898438 406.429688 Z M 465.898438 406.429688 " fill-opacity="1" fill-rule="nonzero"/><path fill="#000000" d="M 465.898438 412.980469 L 462.6875 412.980469 C 462.425781 412.980469 462.214844 412.769531 462.214844 412.511719 L 462.214844 409.316406 C 462.214844 409.0625 462.425781 408.851562 462.6875 408.851562 L 465.898438 408.851562 C 466.160156 408.851562 466.371094 409.0625 466.371094 409.316406 L 466.371094 412.511719 C 466.363281 412.773438 466.160156 412.980469 465.898438 412.980469 Z M 465.898438 412.980469 " fill-opacity="1" fill-rule="nonzero"/><path fill="#000000" d="M 465.898438 419.535156 L 462.6875 419.535156 C 462.425781 419.535156 462.214844 419.324219 462.214844 419.066406 L 462.214844 415.875 C 462.214844 415.617188 462.425781 415.40625 462.6875 415.40625 L 465.898438 415.40625 C 466.160156 415.40625 466.371094 415.617188 466.371094 415.875 L 466.371094 419.074219 C 466.363281 419.324219 466.160156 419.535156 465.898438 419.535156 Z M 465.898438 419.535156 " fill-opacity="1" fill-rule="nonzero"/><path fill="#000000" d="M 472.496094 406.429688 L 469.28125 406.429688 C 469.023438 406.429688 468.8125 406.21875 468.8125 405.960938 L 468.8125 402.765625 C 468.8125 402.511719 469.023438 402.300781 469.28125 402.300781 L 472.496094 402.300781 C 472.753906 402.300781 472.964844 402.511719 472.964844 402.765625 L 472.964844 405.960938 C 472.960938 406.21875 472.75 406.429688 472.496094 406.429688 Z M 472.496094 406.429688 " fill-opacity="1" fill-rule="nonzero"/><path fill="#000000" d="M 472.496094 412.980469 L 469.28125 412.980469 C 469.023438 412.980469 468.8125 412.769531 468.8125 412.511719 L 468.8125 409.316406 C 468.8125 409.0625 469.023438 408.851562 469.28125 408.851562 L 472.496094 408.851562 C 472.753906 408.851562 472.964844 409.0625 472.964844 409.316406 L 472.964844 412.511719 C 472.960938 412.773438 472.75 412.980469 472.496094 412.980469 Z M 472.496094 412.980469 " fill-opacity="1" fill-rule="nonzero"/></svg>