<svg xmlns="http://www.w3.org/2000/svg" xmlns:xlink="http://www.w3.org/1999/xlink" width="1080" zoomAndPan="magnify" viewBox="0 0 810 809.999993" height="1080" preserveAspectRatio="xMidYMid meet" version="1.0"><path fill="#ffa010" d="M 728.945312 404.972656 C 728.78125 583.265625 584.859375 729 404.808594 728.890625 C 225.964844 728.78125 81.054688 584.421875 81.109375 404.808594 C 81.164062 224.976562 226.679688 81.109375 405.082031 81.054688 C 583.871094 81 728.945312 226.183594 728.945312 404.972656 Z M 460.980469 475.917969 C 460.980469 435.996094 460.925781 396.132812 461.035156 356.210938 C 461.089844 341.113281 455.710938 328.316406 444.5625 318.378906 C 426.992188 302.675781 406.566406 299.378906 384.65625 307.121094 C 363.734375 314.535156 349.734375 334.632812 349.84375 357.363281 C 350.28125 436.875 350.0625 516.386719 349.953125 595.898438 C 349.953125 640.8125 388.445312 648.390625 406.839844 648.335938 C 434.515625 648.226562 461.695312 625.933594 461.144531 593.921875 C 460.433594 554.605469 460.980469 515.234375 460.980469 475.917969 Z M 464.769531 220.800781 C 464.714844 187.636719 438.25 161.222656 405.027344 161.222656 C 371.75 161.222656 345.175781 187.855469 345.230469 221.132812 C 345.285156 254.023438 372.136719 280.820312 405.082031 280.820312 C 438.25 280.820312 464.769531 254.132812 464.769531 220.800781 Z M 464.769531 220.800781 " fill-opacity="1" fill-rule="nonzero"/></svg>