<svg xmlns="http://www.w3.org/2000/svg" xmlns:xlink="http://www.w3.org/1999/xlink" width="1080" zoomAndPan="magnify" viewBox="0 0 810 809.999993" height="1080" preserveAspectRatio="xMidYMid meet" version="1.0"><defs><g/><clipPath id="50ce0c1b46"><path d="M 28 362 L 186 362 L 186 634.171875 L 28 634.171875 Z M 28 362 " clip-rule="nonzero"/></clipPath><clipPath id="cd16059852"><path d="M 28 272.71875 L 341 272.71875 L 341 453 L 28 453 Z M 28 272.71875 " clip-rule="nonzero"/></clipPath><clipPath id="48e239b23d"><path d="M 184 362 L 341.734375 362 L 341.734375 634 L 184 634 Z M 184 362 " clip-rule="nonzero"/></clipPath><clipPath id="c63483a697"><path d="M 99.605469 224 L 185 224 L 185 372.417969 L 99.605469 372.417969 Z M 99.605469 224 " clip-rule="nonzero"/></clipPath><clipPath id="600bda7371"><path d="M 100 175.90625 L 269.703125 175.90625 L 269.703125 274 L 100 274 Z M 100 175.90625 " clip-rule="nonzero"/></clipPath><clipPath id="b7f731e638"><path d="M 184 224 L 269.703125 224 L 269.703125 372 L 184 372 Z M 184 224 " clip-rule="nonzero"/></clipPath></defs><g clip-path="url(#50ce0c1b46)"><path fill="#ffcb7d" d="M 184.738281 633.628906 L 185.160156 633.863281 L 184.738281 634.117188 L 28.773438 544.054688 L 28.265625 543.757812 L 28.265625 363.078125 L 28.773438 362.78125 L 184.738281 452.84375 L 185.160156 452.589844 L 185.226562 452.652344 L 184.738281 452.929688 Z M 184.738281 633.628906 " fill-opacity="1" fill-rule="nonzero"/></g><g clip-path="url(#cd16059852)"><path fill="#ffbd59" d="M 340.71875 362.78125 L 185.160156 452.589844 L 184.738281 452.84375 L 28.773438 362.78125 L 184.738281 272.71875 Z M 340.71875 362.78125 " fill-opacity="1" fill-rule="nonzero"/></g><g clip-path="url(#48e239b23d)"><path fill="#ffa010" d="M 341.226562 363.078125 L 341.226562 543.757812 L 340.71875 544.054688 L 185.160156 633.863281 L 184.738281 633.628906 L 184.738281 452.929688 L 185.226562 452.652344 L 340.804688 362.824219 Z M 341.226562 363.078125 " fill-opacity="1" fill-rule="nonzero"/></g><g clip-path="url(#c63483a697)"><path fill="#737373" d="M 184.722656 371.847656 L 184.953125 371.972656 L 184.722656 372.113281 L 100.050781 323.214844 L 99.773438 323.054688 L 99.773438 224.964844 L 100.050781 224.804688 L 184.722656 273.699219 L 184.953125 273.558594 L 184.984375 273.59375 L 184.722656 273.746094 Z M 184.722656 371.847656 " fill-opacity="1" fill-rule="nonzero"/></g><g clip-path="url(#600bda7371)"><path fill="#545454" d="M 269.402344 224.804688 L 184.953125 273.558594 L 184.722656 273.699219 L 100.050781 224.804688 L 184.722656 175.90625 Z M 269.402344 224.804688 " fill-opacity="1" fill-rule="nonzero"/></g><g clip-path="url(#b7f731e638)"><path fill="#000000" d="M 269.679688 224.964844 L 269.679688 323.054688 L 269.402344 323.214844 L 184.953125 371.972656 L 184.722656 371.847656 L 184.722656 273.746094 L 184.984375 273.59375 L 269.449219 224.824219 Z M 269.679688 224.964844 " fill-opacity="1" fill-rule="nonzero"/></g><g fill="#000000" fill-opacity="1"><g transform="translate(399.099418, 375.090407)"><g><path d="M 82.683594 -120.265625 C 82.683594 -137.5 73.332031 -146.664062 56.097656 -146.664062 L 12.101562 -146.664062 C 10.265625 -146.664062 9.167969 -145.75 9.167969 -143.730469 L 9.167969 -2.933594 C 9.167969 -1.101562 10.265625 0 12.101562 0 L 56.097656 0 C 73.332031 0 82.683594 -9.167969 82.683594 -26.398438 L 82.683594 -60.132812 C 82.683594 -66.914062 77.730469 -72.050781 71.132812 -73.148438 L 71.132812 -73.515625 C 77.730469 -74.617188 82.683594 -79.75 82.683594 -86.53125 Z M 58.300781 -92.582031 C 58.300781 -88 55.734375 -85.433594 50.964844 -85.433594 L 34.28125 -85.433594 L 34.28125 -122.464844 L 50.964844 -122.464844 C 55.914062 -122.464844 58.300781 -119.898438 58.300781 -115.132812 Z M 58.300781 -31.53125 C 58.300781 -26.582031 55.734375 -24.199219 50.964844 -24.199219 L 34.28125 -24.199219 L 34.28125 -61.234375 L 50.964844 -61.234375 C 55.914062 -61.234375 58.300781 -58.664062 58.300781 -53.898438 Z M 58.300781 -31.53125 "/></g></g></g><g fill="#000000" fill-opacity="1"><g transform="translate(490.943169, 375.090407)"><g><path d="M 61.964844 -128.332031 C 59.949219 -128.332031 58.300781 -126.683594 58.300781 -124.664062 L 58.300781 -31.53125 C 58.300781 -26.582031 55.734375 -24.199219 50.964844 -24.199219 L 41.433594 -24.199219 C 36.667969 -24.199219 34.097656 -26.582031 34.097656 -31.53125 L 34.097656 -124.664062 C 34.097656 -126.683594 32.449219 -128.332031 30.433594 -128.332031 L 12.832031 -128.332031 C 10.816406 -128.332031 9.167969 -126.683594 9.167969 -124.664062 L 9.167969 -26.398438 C 9.167969 -9.167969 18.332031 0 35.566406 0 L 56.097656 0 C 73.332031 0 82.5 -9.167969 82.5 -26.398438 L 82.5 -124.664062 C 82.5 -126.683594 80.847656 -128.332031 78.832031 -128.332031 Z M 61.964844 -128.332031 "/></g></g></g><g fill="#000000" fill-opacity="1"><g transform="translate(582.603595, 375.090407)"><g><path d="M 35.566406 -128.332031 C 18.515625 -128.332031 9.167969 -119.164062 9.167969 -101.933594 L 9.167969 -70.214844 C 9.167969 -66.734375 10.816406 -64.53125 14.117188 -63.433594 L 58.117188 -49.132812 L 58.117188 -30.617188 C 58.117188 -25.667969 55.550781 -23.28125 50.78125 -23.28125 L 40.882812 -23.28125 C 36.300781 -23.28125 33.550781 -25.667969 33.550781 -30.617188 L 33.550781 -38.316406 C 33.550781 -40.332031 32.632812 -41.25 30.617188 -41.25 L 12.101562 -41.25 C 10.265625 -41.25 9.167969 -40.332031 9.167969 -38.316406 L 9.167969 -26.398438 C 9.167969 -9.167969 18.515625 0 35.566406 0 L 56.097656 0 C 73.332031 0 82.5 -9.167969 82.5 -26.398438 L 82.5 -60.867188 C 82.5 -64.347656 80.847656 -66.550781 77.730469 -67.648438 L 33.367188 -81.949219 L 33.367188 -97.53125 C 33.367188 -102.296875 36.117188 -104.867188 40.699219 -104.867188 L 50.78125 -104.867188 C 55.734375 -104.867188 58.117188 -102.296875 58.117188 -97.53125 L 58.117188 -89.832031 C 58.117188 -88 59.214844 -86.898438 61.050781 -86.898438 L 79.566406 -86.898438 C 81.582031 -86.898438 82.5 -88 82.5 -89.832031 L 82.5 -101.933594 C 82.5 -119.164062 73.332031 -128.332031 56.097656 -128.332031 Z M 35.566406 -128.332031 "/></g></g></g><g fill="#ffa010" fill-opacity="1"><g transform="translate(399.099418, 550.611538)"><g><path d="M 82.683594 -120.265625 C 82.683594 -137.5 73.332031 -146.664062 56.097656 -146.664062 L 12.101562 -146.664062 C 10.265625 -146.664062 9.167969 -145.75 9.167969 -143.730469 L 9.167969 -2.933594 C 9.167969 -1.101562 10.265625 0 12.101562 0 L 56.097656 0 C 73.332031 0 82.683594 -9.167969 82.683594 -26.398438 L 82.683594 -60.132812 C 82.683594 -66.914062 77.730469 -72.050781 71.132812 -73.148438 L 71.132812 -73.515625 C 77.730469 -74.617188 82.683594 -79.75 82.683594 -86.53125 Z M 58.300781 -92.582031 C 58.300781 -88 55.734375 -85.433594 50.964844 -85.433594 L 34.28125 -85.433594 L 34.28125 -122.464844 L 50.964844 -122.464844 C 55.914062 -122.464844 58.300781 -119.898438 58.300781 -115.132812 Z M 58.300781 -31.53125 C 58.300781 -26.582031 55.734375 -24.199219 50.964844 -24.199219 L 34.28125 -24.199219 L 34.28125 -61.234375 L 50.964844 -61.234375 C 55.914062 -61.234375 58.300781 -58.664062 58.300781 -53.898438 Z M 58.300781 -31.53125 "/></g></g></g><g fill="#ffa010" fill-opacity="1"><g transform="translate(490.943169, 550.611538)"><g><path d="M 61.964844 -128.332031 C 59.949219 -128.332031 58.300781 -126.683594 58.300781 -124.664062 L 58.300781 -31.53125 C 58.300781 -26.582031 55.734375 -24.199219 50.964844 -24.199219 L 41.433594 -24.199219 C 36.667969 -24.199219 34.097656 -26.582031 34.097656 -31.53125 L 34.097656 -124.664062 C 34.097656 -126.683594 32.449219 -128.332031 30.433594 -128.332031 L 12.832031 -128.332031 C 10.816406 -128.332031 9.167969 -126.683594 9.167969 -124.664062 L 9.167969 -26.398438 C 9.167969 -9.167969 18.332031 0 35.566406 0 L 56.097656 0 C 73.332031 0 82.5 -9.167969 82.5 -26.398438 L 82.5 -124.664062 C 82.5 -126.683594 80.847656 -128.332031 78.832031 -128.332031 Z M 61.964844 -128.332031 "/></g></g></g><g fill="#ffa010" fill-opacity="1"><g transform="translate(582.603595, 550.611538)"><g><path d="M 15.03125 -128.332031 C 13.199219 -128.148438 12.101562 -127.230469 12.101562 -125.214844 L 12.101562 -107.066406 C 12.101562 -105.230469 13.199219 -104.132812 15.03125 -104.132812 L 52.800781 -104.132812 L 6.050781 -4.398438 C 4.765625 -1.832031 5.867188 0 8.800781 0 L 80.664062 0 C 82.5 -0.183594 83.597656 -1.285156 83.597656 -3.117188 L 83.597656 -19.617188 C 83.597656 -21.632812 82.5 -22.550781 80.664062 -22.550781 L 40.515625 -22.550781 L 87.265625 -123.933594 C 88.550781 -126.5 87.449219 -128.332031 84.515625 -128.332031 Z M 15.03125 -128.332031 "/></g></g></g><g fill="#ffa010" fill-opacity="1"><g transform="translate(675.730592, 550.611538)"><g><path d="M 15.03125 -128.332031 C 13.199219 -128.148438 12.101562 -127.230469 12.101562 -125.214844 L 12.101562 -107.066406 C 12.101562 -105.230469 13.199219 -104.132812 15.03125 -104.132812 L 52.800781 -104.132812 L 6.050781 -4.398438 C 4.765625 -1.832031 5.867188 0 8.800781 0 L 80.664062 0 C 82.5 -0.183594 83.597656 -1.285156 83.597656 -3.117188 L 83.597656 -19.617188 C 83.597656 -21.632812 82.5 -22.550781 80.664062 -22.550781 L 40.515625 -22.550781 L 87.265625 -123.933594 C 88.550781 -126.5 87.449219 -128.332031 84.515625 -128.332031 Z M 15.03125 -128.332031 "/></g></g></g></svg>