<svg xmlns="http://www.w3.org/2000/svg" xmlns:xlink="http://www.w3.org/1999/xlink" width="1080" zoomAndPan="magnify" viewBox="0 0 810 809.999993" height="1080" preserveAspectRatio="xMidYMid meet" version="1.0"><defs><clipPath id="996632097d"><path d="M 81 81 L 729 81 L 729 729 L 81 729 Z M 81 81 " clip-rule="nonzero"/></clipPath></defs><g clip-path="url(#996632097d)"><path fill="#545454" d="M 404.945312 80.972656 C 226.019531 80.972656 80.972656 226.019531 80.972656 404.945312 C 80.972656 583.875 226.019531 728.917969 404.945312 728.917969 C 583.875 728.917969 728.917969 583.875 728.917969 404.945312 C 728.917969 226.019531 583.875 80.972656 404.945312 80.972656 Z M 404.945312 171.691406 C 469.367188 171.691406 521.582031 223.902344 521.582031 288.324219 C 521.582031 352.746094 469.367188 404.960938 404.945312 404.960938 C 340.523438 404.960938 288.3125 352.734375 288.3125 288.324219 C 288.3125 223.914062 340.523438 171.691406 404.945312 171.691406 Z M 404.945312 651.179688 C 322.140625 651.179688 249.066406 610.183594 204.425781 547.511719 C 249.066406 484.839844 322.140625 443.84375 404.945312 443.84375 C 487.753906 443.84375 560.828125 484.839844 605.464844 547.511719 C 560.828125 610.183594 487.753906 651.179688 404.945312 651.179688 Z M 404.945312 651.179688 " fill-opacity="1" fill-rule="nonzero"/></g></svg>