<svg xmlns="http://www.w3.org/2000/svg" xmlns:xlink="http://www.w3.org/1999/xlink" width="1080" zoomAndPan="magnify" viewBox="0 0 810 809.999993" height="1080" preserveAspectRatio="xMidYMid meet" version="1.0"><defs><g/><clipPath id="16f769e9fa"><path d="M 12 242.765625 L 233.859375 242.765625 L 233.859375 576 L 12 576 Z M 12 242.765625 " clip-rule="nonzero"/></clipPath><clipPath id="baf992294f"><path d="M 399.664062 234.285156 L 798 234.285156 L 798 567 L 399.664062 567 Z M 399.664062 234.285156 " clip-rule="nonzero"/></clipPath></defs><g clip-path="url(#16f769e9fa)"><path fill="#ffa010" d="M 131.371094 242.765625 C 130.394531 245.191406 129.292969 247.5625 128.070312 249.878906 C 126.847656 252.191406 125.511719 254.433594 124.058594 256.609375 C 122.601562 258.785156 121.042969 260.882812 119.371094 262.894531 C 117.699219 264.910156 115.929688 266.832031 114.0625 268.664062 C 112.191406 270.492188 110.234375 272.222656 108.1875 273.851562 C 106.136719 275.480469 104.011719 277 101.808594 278.410156 C 99.601562 279.820312 97.332031 281.109375 94.992188 282.285156 C 92.65625 283.460938 90.261719 284.507812 87.816406 285.4375 C 87.882812 265.1875 109.964844 243.308594 131.371094 242.765625 Z M 87.136719 539.832031 C 72.324219 521.351562 52.484375 510.414062 37.601562 517.34375 C 49.832031 541.734375 74.703125 550.433594 87.136719 539.832031 Z M 63.964844 503.957031 C 53.570312 483.574219 36.378906 469.03125 20.410156 472.835938 C 27.546875 498.792969 49.765625 511.90625 63.964844 503.957031 Z M 48.882812 464.957031 C 42.765625 443.347656 28.496094 425.679688 12.394531 426.359375 C 14.363281 452.996094 33.390625 469.914062 48.882812 464.957031 Z M 42.085938 424.1875 C 40.320312 401.898438 29.992188 381.785156 13.753906 379.273438 C 10.285156 405.839844 25.984375 426.226562 41.816406 424.1875 Z M 43.105469 382.875 C 45.621094 360.65625 39.4375 338.777344 24.082031 333.136719 C 15.382812 358.683594 26.664062 381.515625 42.832031 382.875 Z M 52.074219 342.105469 C 58.871094 320.703125 57.375 297.734375 43.445312 289.105469 C 29.652344 313.160156 36.242188 337.894531 51.804688 342.378906 Z M 68.859375 303.917969 C 80 284.011719 83.601562 260.773438 71.710938 249.558594 C 53.160156 270.761719 54.453125 296.582031 68.859375 303.917969 Z M 78.574219 309.492188 C 93.117188 317.101562 111.800781 310.035156 124.4375 295.902344 C 112.683594 284.894531 89.921875 289.785156 78.574219 309.625 Z M 62.472656 345.910156 C 78.234375 350.53125 95.085938 340.136719 104.257812 324.234375 C 90.464844 315.605469 69.46875 324.304688 62.472656 345.910156 Z M 53.976562 384.234375 C 70.285156 385.660156 84.757812 372.273438 90.535156 355.21875 C 75.3125 349.445312 56.628906 362.082031 53.976562 384.234375 Z M 53.160156 423.304688 C 69.402344 421.535156 81.089844 405.570312 83.398438 387.835938 C 67.226562 385.457031 51.394531 401.085938 53.160156 423.304688 Z M 59.957031 461.964844 C 75.585938 457.003906 83.941406 439 82.71875 421.195312 C 66.207031 421.742188 53.773438 440.359375 59.957031 461.964844 Z M 74.226562 498.859375 C 88.5625 490.910156 93.046875 471.683594 88.425781 454.015625 C 72.324219 457.753906 63.695312 478.613281 73.953125 498.859375 Z M 96.035156 532.835938 C 108.472656 522.167969 108.675781 501.78125 100.589844 485.273438 C 85.503906 492.269531 81.222656 514.558594 95.765625 532.835938 Z M 130.011719 569.457031 C 127.433594 567.53125 124.898438 565.542969 122.414062 563.492188 C 119.929688 561.445312 117.496094 559.335938 115.109375 557.171875 C 112.722656 555.007812 110.390625 552.789062 108.113281 550.515625 C 105.832031 548.242188 103.605469 545.914062 101.4375 543.53125 C 99.269531 541.152344 97.15625 538.722656 95.101562 536.242188 C 93.046875 533.761719 91.050781 531.234375 89.117188 528.660156 C 87.183594 526.085938 85.3125 523.464844 83.5 520.800781 C 81.691406 518.140625 79.945312 515.433594 78.261719 512.6875 C 76.578125 509.941406 74.960938 507.15625 73.414062 504.332031 C 71.863281 501.511719 70.378906 498.652344 68.964844 495.757812 C 67.550781 492.867188 66.203125 489.941406 64.929688 486.984375 C 63.652344 484.027344 62.445312 481.042969 61.3125 478.027344 C 60.175781 475.015625 59.113281 471.972656 58.125 468.910156 C 57.132812 465.84375 56.214844 462.757812 55.371094 459.652344 C 54.527344 456.542969 53.757812 453.417969 53.0625 450.273438 C 52.363281 447.128906 51.742188 443.96875 51.195312 440.796875 C 50.652344 437.621094 50.179688 434.4375 49.785156 431.238281 C 49.390625 428.042969 49.070312 424.839844 48.824219 421.628906 C 48.582031 418.417969 48.414062 415.203125 48.324219 411.984375 C 48.230469 408.761719 48.21875 405.542969 48.277344 402.324219 C 48.339844 399.105469 48.476562 395.886719 48.691406 392.671875 C 48.90625 389.460938 49.195312 386.253906 49.5625 383.054688 C 49.925781 379.855469 50.367188 376.664062 50.886719 373.484375 C 51.402344 370.308594 51.996094 367.140625 52.660156 363.992188 C 53.328125 360.839844 54.070312 357.707031 54.886719 354.589844 C 55.703125 351.476562 56.589844 348.382812 57.550781 345.308594 C 58.515625 342.234375 59.550781 339.183594 60.65625 336.160156 C 61.761719 333.136719 62.941406 330.140625 64.1875 327.171875 C 65.4375 324.203125 66.757812 321.265625 68.144531 318.359375 C 69.53125 315.453125 70.988281 312.582031 72.511719 309.746094 C 74.035156 306.90625 75.625 304.109375 77.285156 301.347656 C 78.941406 298.585938 80.660156 295.863281 82.449219 293.183594 C 80.589844 295.871094 78.800781 298.601562 77.074219 301.375 C 75.347656 304.148438 73.6875 306.960938 72.09375 309.8125 C 70.503906 312.664062 68.976562 315.550781 67.523438 318.472656 C 66.066406 321.398438 64.679688 324.355469 63.363281 327.34375 C 62.050781 330.335938 60.804688 333.355469 59.632812 336.402344 C 58.460938 339.453125 57.363281 342.527344 56.335938 345.628906 C 55.308594 348.730469 54.359375 351.851562 53.480469 355 C 52.601562 358.144531 51.800781 361.308594 51.070312 364.492188 C 50.34375 367.679688 49.691406 370.878906 49.117188 374.09375 C 48.542969 377.308594 48.042969 380.535156 47.621094 383.773438 C 47.195312 387.011719 46.851562 390.261719 46.582031 393.515625 C 46.316406 396.769531 46.125 400.03125 46.011719 403.296875 C 45.894531 406.558594 45.859375 409.824219 45.902344 413.089844 C 45.941406 416.359375 46.0625 419.621094 46.257812 422.882812 C 46.453125 426.140625 46.726562 429.394531 47.078125 432.644531 C 47.429688 435.890625 47.855469 439.128906 48.363281 442.355469 C 48.867188 445.582031 49.445312 448.796875 50.101562 451.996094 C 50.761719 455.195312 51.492188 458.378906 52.300781 461.542969 C 53.109375 464.707031 53.992188 467.851562 54.949219 470.972656 C 55.90625 474.097656 56.9375 477.195312 58.042969 480.269531 C 59.144531 483.34375 60.324219 486.390625 61.570312 489.40625 C 62.820312 492.425781 64.140625 495.414062 65.53125 498.367188 C 66.921875 501.324219 68.382812 504.246094 69.910156 507.132812 C 71.441406 510.015625 73.039062 512.867188 74.703125 515.675781 C 76.367188 518.484375 78.097656 521.253906 79.894531 523.984375 C 81.6875 526.710938 83.550781 529.394531 85.472656 532.035156 C 87.394531 534.675781 89.382812 537.269531 91.425781 539.816406 C 93.472656 542.359375 95.578125 544.855469 97.746094 547.300781 C 99.910156 549.746094 102.132812 552.140625 104.410156 554.480469 C 106.6875 556.820312 109.023438 559.105469 111.410156 561.335938 C 113.796875 563.566406 116.234375 565.738281 118.726562 567.851562 C 121.214844 569.964844 123.753906 572.019531 126.339844 574.011719 C 128.246094 575.507812 130.554688 575.640625 131.503906 574.011719 C 132.457031 572.378906 131.503906 570.613281 129.875 569.1875 Z M 504.949219 242.765625 C 505.925781 245.191406 507.023438 247.5625 508.246094 249.878906 C 509.46875 252.191406 510.804688 254.433594 512.261719 256.609375 C 513.714844 258.785156 515.277344 260.882812 516.945312 262.894531 C 518.617188 264.910156 520.386719 266.832031 522.253906 268.664062 C 524.125 270.492188 526.082031 272.222656 528.128906 273.851562 C 530.179688 275.480469 532.304688 277 534.507812 278.410156 C 536.714844 279.820312 538.984375 281.109375 541.324219 282.285156 C 543.664062 283.460938 546.054688 284.507812 548.5 285.4375 C 548.433594 265.1875 526.351562 243.308594 504.949219 242.765625 Z M 598.714844 517.34375 C 583.835938 510.546875 563.992188 521.625 549.316406 539.832031 C 561.617188 550.433594 586.484375 541.734375 598.714844 517.34375 Z M 615.90625 472.835938 C 599.9375 469.03125 582.746094 483.707031 572.351562 503.957031 C 586.550781 511.90625 608.773438 498.792969 615.90625 472.835938 Z M 623.925781 426.226562 C 607.546875 425.546875 593.550781 443.210938 587.4375 464.820312 C 602.929688 469.914062 621.953125 452.996094 623.925781 426.226562 Z M 622.835938 379.136719 C 606.597656 381.652344 596.269531 401.761719 594.503906 424.050781 C 610.335938 426.226562 626.03125 405.839844 622.835938 379.273438 Z M 612.507812 333.136719 C 597.152344 338.777344 590.96875 360.65625 593.484375 382.875 C 609.65625 381.515625 620.933594 358.683594 612.507812 333.136719 Z M 593.144531 289.378906 C 579.554688 298.007812 577.652344 320.972656 584.515625 342.378906 C 600.074219 337.894531 606.664062 313.160156 593.144531 289.378906 Z M 564.605469 249.558594 C 552.714844 260.839844 556.316406 284.078125 567.460938 303.917969 C 581.863281 296.582031 583.15625 270.761719 564.605469 249.558594 Z M 511.878906 296.105469 C 524.515625 310.167969 543.203125 317.238281 557.742188 309.695312 C 546.394531 289.785156 523.632812 284.894531 511.878906 296.105469 Z M 532.261719 324.234375 C 541.433594 340.136719 558.285156 350.53125 574.050781 345.910156 C 566.847656 324.304688 545.851562 315.605469 532.058594 324.304688 Z M 545.851562 355.21875 C 551.628906 372.273438 566.234375 385.660156 582.40625 384.234375 C 579.691406 362.082031 561.003906 349.445312 545.785156 355.21875 Z M 553.121094 387.835938 C 555.433594 405.570312 567.121094 421.808594 583.359375 423.304688 C 584.921875 401.085938 569.089844 385.457031 553.054688 387.835938 Z M 553.9375 421.128906 C 552.714844 439 560.734375 457.003906 576.699219 461.898438 C 582.542969 440.359375 570.109375 421.742188 553.871094 421.128906 Z M 548.230469 454.015625 C 543.609375 471.410156 548.230469 490.910156 562.429688 498.859375 C 572.625 478.613281 563.992188 457.753906 548.164062 454.015625 Z M 536.066406 485.476562 C 527.980469 501.78125 528.183594 522.167969 540.621094 533.039062 C 555.09375 514.558594 550.8125 492.269531 536 485.476562 Z M 506.644531 569.527344 C 504.8125 570.953125 504.0625 573.128906 505.015625 574.351562 C 505.964844 575.574219 508.277344 575.507812 510.179688 574.351562 C 512.773438 572.355469 515.316406 570.304688 517.8125 568.1875 C 520.308594 566.074219 522.753906 563.902344 525.144531 561.667969 C 527.539062 559.4375 529.875 557.152344 532.160156 554.808594 C 534.441406 552.46875 536.667969 550.074219 538.839844 547.625 C 541.007812 545.175781 543.121094 542.679688 545.171875 540.128906 C 547.222656 537.582031 549.210938 534.988281 551.140625 532.34375 C 553.066406 529.699219 554.929688 527.015625 556.730469 524.28125 C 558.53125 521.550781 560.265625 518.777344 561.933594 515.964844 C 563.601562 513.152344 565.203125 510.296875 566.734375 507.410156 C 568.265625 504.519531 569.730469 501.59375 571.121094 498.632812 C 572.515625 495.675781 573.839844 492.683594 575.089844 489.660156 C 576.339844 486.640625 577.519531 483.589844 578.625 480.511719 C 579.734375 477.429688 580.765625 474.328125 581.722656 471.199219 C 582.683594 468.074219 583.566406 464.925781 584.375 461.753906 C 585.183594 458.585938 585.917969 455.398438 586.574219 452.195312 C 587.234375 448.988281 587.8125 445.773438 588.320312 442.539062 C 588.824219 439.308594 589.25 436.066406 589.601562 432.8125 C 589.953125 429.558594 590.226562 426.300781 590.421875 423.035156 C 590.617188 419.769531 590.734375 416.503906 590.773438 413.230469 C 590.8125 409.960938 590.777344 406.691406 590.660156 403.421875 C 590.546875 400.152344 590.351562 396.886719 590.082031 393.628906 C 589.8125 390.367188 589.464844 387.117188 589.039062 383.871094 C 588.613281 380.628906 588.113281 377.398438 587.53125 374.179688 C 586.953125 370.957031 586.300781 367.753906 585.566406 364.566406 C 584.835938 361.378906 584.03125 358.207031 583.148438 355.058594 C 582.265625 351.90625 581.3125 348.78125 580.28125 345.675781 C 579.25 342.570312 578.148438 339.492188 576.96875 336.441406 C 575.792969 333.386719 574.542969 330.367188 573.222656 327.371094 C 571.902344 324.378906 570.511719 321.421875 569.050781 318.492188 C 567.589844 315.566406 566.058594 312.675781 564.460938 309.824219 C 562.863281 306.96875 561.199219 304.152344 559.464844 301.378906 C 557.734375 298.605469 555.9375 295.871094 554.074219 293.183594 C 555.859375 295.863281 557.582031 298.585938 559.238281 301.347656 C 560.894531 304.109375 562.484375 306.90625 564.007812 309.746094 C 565.53125 312.582031 566.988281 315.453125 568.378906 318.359375 C 569.765625 321.265625 571.082031 324.203125 572.332031 327.171875 C 573.582031 330.140625 574.757812 333.136719 575.867188 336.160156 C 576.972656 339.183594 578.007812 342.234375 578.96875 345.308594 C 579.929688 348.382812 580.820312 351.476562 581.636719 354.589844 C 582.449219 357.707031 583.191406 360.839844 583.859375 363.992188 C 584.527344 367.140625 585.117188 370.308594 585.636719 373.484375 C 586.152344 376.664062 586.59375 379.855469 586.960938 383.054688 C 587.324219 386.253906 587.617188 389.460938 587.828125 392.671875 C 588.042969 395.886719 588.179688 399.105469 588.242188 402.324219 C 588.304688 405.542969 588.289062 408.761719 588.199219 411.984375 C 588.105469 415.203125 587.9375 418.417969 587.695312 421.628906 C 587.453125 424.839844 587.132812 428.042969 586.738281 431.238281 C 586.339844 434.4375 585.871094 437.621094 585.324219 440.796875 C 584.777344 443.96875 584.15625 447.128906 583.460938 450.273438 C 582.765625 453.417969 581.992188 456.542969 581.148438 459.652344 C 580.304688 462.757812 579.386719 465.84375 578.398438 468.910156 C 577.40625 471.972656 576.34375 475.015625 575.210938 478.027344 C 574.074219 481.042969 572.871094 484.027344 571.59375 486.984375 C 570.316406 489.941406 568.972656 492.867188 567.554688 495.757812 C 566.140625 498.652344 564.660156 501.511719 563.109375 504.332031 C 561.558594 507.15625 559.941406 509.941406 558.261719 512.6875 C 556.578125 515.433594 554.832031 518.140625 553.019531 520.800781 C 551.210938 523.464844 549.335938 526.085938 547.402344 528.660156 C 545.46875 531.234375 543.472656 533.761719 541.417969 536.242188 C 539.363281 538.722656 537.253906 541.152344 535.082031 543.53125 C 532.914062 545.914062 530.6875 548.242188 528.410156 550.515625 C 526.128906 552.789062 523.796875 555.007812 521.410156 557.171875 C 519.027344 559.335938 516.589844 561.445312 514.105469 563.492188 C 511.621094 565.542969 509.089844 567.53125 506.511719 569.457031 Z M 506.644531 569.527344 " fill-opacity="1" fill-rule="nonzero"/></g><g fill="#000000" fill-opacity="1"><g transform="translate(258.650384, 352.076163)"><g><path d="M 3.796875 -66 C 2.96875 -66 2.476562 -65.503906 2.476562 -64.679688 L 2.476562 -56.429688 C 2.476562 -55.605469 2.96875 -55.109375 3.796875 -55.109375 L 13.363281 -55.109375 L 13.363281 -1.320312 C 13.363281 -0.414062 13.859375 0 14.683594 0 L 23.265625 0 C 24.171875 0 24.585938 -0.414062 24.585938 -1.320312 L 24.585938 -55.109375 L 34.15625 -55.109375 C 35.0625 -55.109375 35.476562 -55.605469 35.476562 -56.429688 L 35.476562 -64.679688 C 35.476562 -65.503906 35.0625 -66 34.15625 -66 Z M 3.796875 -66 "/></g></g></g><g fill="#000000" fill-opacity="1"><g transform="translate(296.586166, 352.076163)"><g><path d="M 37.125 -45.871094 C 37.125 -53.625 33 -57.75 25.246094 -57.75 L 5.445312 -57.75 C 4.621094 -57.75 4.125 -57.253906 4.125 -56.429688 L 4.125 -1.320312 C 4.125 -0.496094 4.621094 0 5.445312 0 L 13.53125 0 C 14.355469 0 14.851562 -0.496094 14.851562 -1.320312 L 14.851562 -17.40625 L 22.191406 -17.40625 L 26.152344 -1.15625 C 26.316406 -0.414062 26.730469 0 27.554688 0 L 35.640625 0 C 36.546875 0 37.042969 -0.496094 36.792969 -1.484375 L 32.503906 -19.222656 C 35.558594 -21.121094 37.125 -24.503906 37.125 -29.289062 Z M 14.851562 -28.050781 L 14.851562 -47.105469 L 23.101562 -47.105469 C 25.246094 -47.105469 26.398438 -45.953125 26.398438 -43.808594 L 26.398438 -31.351562 C 26.398438 -29.203125 25.246094 -28.050781 23.101562 -28.050781 Z M 14.851562 -28.050781 "/></g></g></g><g fill="#000000" fill-opacity="1"><g transform="translate(337.820703, 352.076163)"><g><path d="M 27.886719 -57.75 C 26.976562 -57.75 26.234375 -57.007812 26.234375 -56.101562 L 26.234375 -14.191406 C 26.234375 -11.960938 25.078125 -10.890625 22.933594 -10.890625 L 18.644531 -10.890625 C 16.5 -10.890625 15.34375 -11.960938 15.34375 -14.191406 L 15.34375 -56.101562 C 15.34375 -57.007812 14.601562 -57.75 13.695312 -57.75 L 5.773438 -57.75 C 4.867188 -57.75 4.125 -57.007812 4.125 -56.101562 L 4.125 -11.878906 C 4.125 -4.125 8.25 0 16.003906 0 L 25.246094 0 C 33 0 37.125 -4.125 37.125 -11.878906 L 37.125 -56.101562 C 37.125 -57.007812 36.382812 -57.75 35.476562 -57.75 Z M 27.886719 -57.75 "/></g></g></g><g fill="#000000" fill-opacity="1"><g transform="translate(379.055241, 352.076163)"><g><path d="M 16.003906 -57.75 C 8.332031 -57.75 4.125 -53.625 4.125 -45.871094 L 4.125 -31.597656 C 4.125 -30.03125 4.867188 -29.039062 6.351562 -28.542969 L 26.152344 -22.109375 L 26.152344 -13.777344 C 26.152344 -11.550781 24.996094 -10.476562 22.851562 -10.476562 L 18.398438 -10.476562 C 16.335938 -10.476562 15.097656 -11.550781 15.097656 -13.777344 L 15.097656 -17.242188 C 15.097656 -18.148438 14.683594 -18.5625 13.777344 -18.5625 L 5.445312 -18.5625 C 4.621094 -18.5625 4.125 -18.148438 4.125 -17.242188 L 4.125 -11.878906 C 4.125 -4.125 8.332031 0 16.003906 0 L 25.246094 0 C 33 0 37.125 -4.125 37.125 -11.878906 L 37.125 -27.390625 C 37.125 -28.957031 36.382812 -29.949219 34.980469 -30.441406 L 15.015625 -36.878906 L 15.015625 -43.890625 C 15.015625 -46.035156 16.253906 -47.191406 18.316406 -47.191406 L 22.851562 -47.191406 C 25.078125 -47.191406 26.152344 -46.035156 26.152344 -43.890625 L 26.152344 -40.425781 C 26.152344 -39.601562 26.648438 -39.105469 27.472656 -39.105469 L 35.804688 -39.105469 C 36.710938 -39.105469 37.125 -39.601562 37.125 -40.425781 L 37.125 -45.871094 C 37.125 -53.625 33 -57.75 25.246094 -57.75 Z M 16.003906 -57.75 "/></g></g></g><g fill="#000000" fill-opacity="1"><g transform="translate(420.289778, 352.076163)"><g><path d="M 34.15625 -57.75 C 35.0625 -57.75 35.476562 -57.253906 35.476562 -56.429688 L 35.476562 -48.179688 C 35.476562 -47.355469 35.0625 -46.859375 34.15625 -46.859375 L 24.585938 -46.859375 L 24.585938 -1.320312 C 24.585938 -0.414062 24.171875 0 23.265625 0 L 14.683594 0 C 13.859375 0 13.363281 -0.414062 13.363281 -1.320312 L 13.363281 -46.859375 L 3.796875 -46.859375 C 2.96875 -46.859375 2.476562 -47.355469 2.476562 -48.179688 L 2.476562 -56.429688 C 2.476562 -57.253906 2.96875 -57.75 3.796875 -57.75 Z M 34.15625 -57.75 "/></g></g></g><g fill="#000000" fill-opacity="1"><g transform="translate(458.22556, 352.076163)"><g><path d="M 37.042969 -56.429688 C 37.042969 -57.253906 36.710938 -57.75 35.722656 -57.75 L 5.363281 -57.75 C 4.621094 -57.75 4.125 -57.253906 4.125 -56.429688 L 4.125 -1.320312 C 4.125 -0.496094 4.621094 0 5.363281 0 L 35.722656 0 C 36.710938 0 37.042969 -0.496094 37.042969 -1.320312 L 37.042969 -9.570312 C 37.042969 -10.476562 36.710938 -10.890625 35.722656 -10.890625 L 15.34375 -10.890625 L 15.34375 -23.101562 L 30.855469 -23.101562 C 31.679688 -23.101562 32.175781 -23.59375 32.175781 -24.503906 L 32.175781 -32.667969 C 32.175781 -33.578125 31.679688 -34.074219 30.855469 -34.074219 L 15.34375 -34.074219 L 15.34375 -46.777344 L 35.722656 -46.777344 C 36.710938 -46.777344 37.042969 -47.355469 37.042969 -48.179688 Z M 37.042969 -56.429688 "/></g></g></g><g fill="#000000" fill-opacity="1"><g transform="translate(499.377603, 352.076163)"><g><path d="M 4.125 -1.320312 C 4.125 -0.414062 4.539062 0 5.445312 0 L 25.246094 0 C 33 0 37.125 -4.125 37.125 -11.878906 L 37.125 -45.789062 C 37.125 -53.542969 33 -57.75 25.246094 -57.75 L 5.445312 -57.75 C 4.539062 -57.75 4.125 -57.253906 4.125 -56.429688 Z M 15.34375 -10.890625 L 15.34375 -46.859375 L 22.933594 -46.859375 C 25.078125 -46.859375 26.234375 -45.703125 26.234375 -43.476562 L 26.234375 -14.191406 C 26.234375 -11.960938 25.078125 -10.890625 22.933594 -10.890625 Z M 15.34375 -10.890625 "/></g></g></g><g fill="#000000" fill-opacity="1"><g transform="translate(540.650756, 352.076163)"><g/></g></g><g fill="#ffa010" fill-opacity="1"><g transform="translate(152.367577, 460.364306)"><g><path d="M 49.273438 -71.667969 C 49.273438 -81.9375 43.699219 -87.402344 33.429688 -87.402344 L 7.210938 -87.402344 C 6.117188 -87.402344 5.460938 -86.855469 5.460938 -85.652344 L 5.460938 -1.746094 C 5.460938 -0.65625 6.117188 0 7.210938 0 L 33.429688 0 C 43.699219 0 49.273438 -5.460938 49.273438 -15.730469 L 49.273438 -35.835938 C 49.273438 -39.875 46.324219 -42.933594 42.390625 -43.589844 L 42.390625 -43.808594 C 46.324219 -44.464844 49.273438 -47.523438 49.273438 -51.566406 Z M 34.742188 -55.171875 C 34.742188 -52.441406 33.210938 -50.910156 30.371094 -50.910156 L 20.429688 -50.910156 L 20.429688 -72.980469 L 30.371094 -72.980469 C 33.320312 -72.980469 34.742188 -71.449219 34.742188 -68.609375 Z M 34.742188 -18.792969 C 34.742188 -15.839844 33.210938 -14.421875 30.371094 -14.421875 L 20.429688 -14.421875 L 20.429688 -36.488281 L 30.371094 -36.488281 C 33.320312 -36.488281 34.742188 -34.960938 34.742188 -32.121094 Z M 34.742188 -18.792969 "/></g></g></g><g fill="#ffa010" fill-opacity="1"><g transform="translate(207.090765, 460.364306)"><g><path d="M 43.480469 -76.476562 C 42.171875 -76.476562 41.40625 -75.820312 40.96875 -74.726562 L 28.734375 -46.648438 L 16.496094 -74.726562 C 16.058594 -75.820312 15.296875 -76.476562 13.984375 -76.476562 L 3.058594 -76.476562 C 1.421875 -76.476562 0.65625 -75.382812 1.3125 -73.960938 L 21.304688 -28.625 L 21.304688 -2.183594 C 21.304688 -0.765625 22.070312 0 23.488281 0 L 33.976562 0 C 35.398438 0 36.160156 -0.765625 36.160156 -2.183594 L 36.160156 -28.625 L 56.15625 -73.960938 C 56.808594 -75.382812 56.046875 -76.476562 54.40625 -76.476562 Z M 43.480469 -76.476562 "/></g></g></g><g fill="#ffa010" fill-opacity="1"><g transform="translate(264.544669, 460.364306)"><g/></g></g><g fill="#ffa010" fill-opacity="1"><g transform="translate(291.851644, 460.364306)"><g><path d="M 8.738281 -87.402344 C 7.320312 -87.402344 6.554688 -86.636719 6.554688 -85.214844 L 6.554688 -47.195312 C 6.554688 -45.996094 7.101562 -45.230469 8.414062 -44.792969 L 34.414062 -36.597656 L 34.414062 -16.605469 C 34.414062 -15.1875 33.648438 -14.421875 32.230469 -14.421875 L 20.320312 -14.421875 L 20.320312 -18.792969 C 20.320312 -20.210938 19.554688 -20.976562 18.136719 -20.976562 L 7.648438 -20.976562 C 6.226562 -20.976562 5.460938 -20.210938 5.460938 -18.792969 L 5.460938 -15.296875 C 5.460938 -5.351562 10.816406 0 20.757812 0 L 33.867188 0 C 43.808594 0 49.164062 -5.351562 49.164062 -15.296875 L 49.164062 -45.230469 C 49.164062 -46.429688 48.617188 -47.195312 47.304688 -47.632812 L 21.304688 -55.828125 L 21.304688 -72.980469 L 45.886719 -72.980469 C 47.304688 -72.980469 48.070312 -73.746094 48.070312 -75.164062 L 48.070312 -85.214844 C 48.070312 -86.636719 47.304688 -87.402344 45.886719 -87.402344 Z M 8.738281 -87.402344 "/></g></g></g><g fill="#ffa010" fill-opacity="1"><g transform="translate(346.465594, 460.364306)"><g/></g></g><g fill="#ffa010" fill-opacity="1"><g transform="translate(373.772569, 460.364306)"><g><path d="M 49.273438 -71.667969 C 49.273438 -81.9375 43.699219 -87.402344 33.539062 -87.402344 L 21.304688 -87.402344 C 11.035156 -87.402344 5.460938 -81.9375 5.460938 -71.667969 L 5.460938 -15.730469 C 5.460938 -5.460938 11.035156 0 21.304688 0 L 33.539062 0 C 43.699219 0 49.273438 -5.460938 49.273438 -15.730469 L 49.273438 -27.53125 C 49.273438 -28.625 48.617188 -29.277344 47.523438 -29.277344 L 36.597656 -29.277344 C 35.398438 -29.277344 34.851562 -28.625 34.851562 -27.53125 L 34.851562 -18.792969 C 34.851562 -15.839844 33.320312 -14.421875 30.480469 -14.421875 L 24.800781 -14.421875 C 21.960938 -14.421875 20.429688 -15.839844 20.429688 -18.792969 L 20.429688 -68.609375 C 20.429688 -71.449219 21.851562 -72.980469 24.800781 -72.980469 L 30.480469 -72.980469 C 33.320312 -72.980469 34.851562 -71.449219 34.851562 -68.609375 L 34.851562 -59.871094 C 34.851562 -58.777344 35.398438 -58.121094 36.597656 -58.121094 L 47.523438 -58.121094 C 48.617188 -58.121094 49.273438 -58.777344 49.273438 -59.871094 Z M 49.273438 -71.667969 "/></g></g></g><g fill="#ffa010" fill-opacity="1"><g transform="translate(428.495757, 460.364306)"><g><path d="M 49.164062 -60.742188 C 49.164062 -71.011719 43.699219 -76.476562 33.429688 -76.476562 L 7.210938 -76.476562 C 6.117188 -76.476562 5.460938 -75.820312 5.460938 -74.726562 L 5.460938 -1.746094 C 5.460938 -0.65625 6.117188 0 7.210938 0 L 17.917969 0 C 19.007812 0 19.664062 -0.65625 19.664062 -1.746094 L 19.664062 -23.050781 L 29.386719 -23.050781 L 34.632812 -1.53125 C 34.851562 -0.546875 35.398438 0 36.488281 0 L 47.195312 0 C 48.398438 0 49.054688 -0.65625 48.726562 -1.964844 L 43.042969 -25.457031 C 47.085938 -27.96875 49.164062 -32.449219 49.164062 -38.785156 Z M 19.664062 -37.144531 L 19.664062 -62.382812 L 30.589844 -62.382812 C 33.429688 -62.382812 34.960938 -60.851562 34.960938 -58.011719 L 34.960938 -41.515625 C 34.960938 -38.675781 33.429688 -37.144531 30.589844 -37.144531 Z M 19.664062 -37.144531 "/></g></g></g><g fill="#ffa010" fill-opacity="1"><g transform="translate(483.109706, 460.364306)"><g><path d="M 5.460938 -15.730469 C 5.460938 -5.460938 10.925781 0 21.195312 0 L 33.429688 0 C 43.699219 0 49.164062 -5.460938 49.164062 -15.730469 L 49.164062 -60.742188 C 49.164062 -71.011719 43.699219 -76.476562 33.429688 -76.476562 L 21.195312 -76.476562 C 10.925781 -76.476562 5.460938 -71.011719 5.460938 -60.742188 Z M 24.035156 -14.09375 C 21.195312 -14.09375 19.664062 -15.511719 19.664062 -18.464844 L 19.664062 -58.011719 C 19.664062 -60.851562 21.195312 -62.382812 24.035156 -62.382812 L 31.027344 -62.382812 C 33.867188 -62.382812 35.398438 -60.851562 35.398438 -58.011719 L 35.398438 -18.464844 C 35.398438 -15.511719 33.867188 -14.09375 31.027344 -14.09375 Z M 24.035156 -14.09375 "/></g></g></g><g fill="#ffa010" fill-opacity="1"><g transform="translate(537.723656, 460.364306)"><g><path d="M 49.164062 -60.742188 C 49.164062 -71.011719 43.699219 -76.476562 33.429688 -76.476562 L 7.210938 -76.476562 C 6.117188 -76.476562 5.460938 -75.820312 5.460938 -74.726562 L 5.460938 -1.746094 C 5.460938 -0.65625 6.117188 0 7.210938 0 L 17.917969 0 C 19.007812 0 19.664062 -0.65625 19.664062 -1.746094 L 19.664062 -23.050781 L 29.386719 -23.050781 L 34.632812 -1.53125 C 34.851562 -0.546875 35.398438 0 36.488281 0 L 47.195312 0 C 48.398438 0 49.054688 -0.65625 48.726562 -1.964844 L 43.042969 -25.457031 C 47.085938 -27.96875 49.164062 -32.449219 49.164062 -38.785156 Z M 19.664062 -37.144531 L 19.664062 -62.382812 L 30.589844 -62.382812 C 33.429688 -62.382812 34.960938 -60.851562 34.960938 -58.011719 L 34.960938 -41.515625 C 34.960938 -38.675781 33.429688 -37.144531 30.589844 -37.144531 Z M 19.664062 -37.144531 "/></g></g></g><g fill="#ffa010" fill-opacity="1"><g transform="translate(592.337606, 460.364306)"><g><path d="M 49.054688 -74.726562 C 49.054688 -75.820312 48.617188 -76.476562 47.304688 -76.476562 L 7.101562 -76.476562 C 6.117188 -76.476562 5.460938 -75.820312 5.460938 -74.726562 L 5.460938 -1.746094 C 5.460938 -0.65625 6.117188 0 7.101562 0 L 47.304688 0 C 48.617188 0 49.054688 -0.65625 49.054688 -1.746094 L 49.054688 -12.671875 C 49.054688 -13.875 48.617188 -14.421875 47.304688 -14.421875 L 20.320312 -14.421875 L 20.320312 -30.589844 L 40.859375 -30.589844 C 41.953125 -30.589844 42.609375 -31.246094 42.609375 -32.449219 L 42.609375 -43.261719 C 42.609375 -44.464844 41.953125 -45.121094 40.859375 -45.121094 L 20.320312 -45.121094 L 20.320312 -61.945312 L 47.304688 -61.945312 C 48.617188 -61.945312 49.054688 -62.710938 49.054688 -63.800781 Z M 49.054688 -74.726562 "/></g></g></g><g fill="#000000" fill-opacity="1"><g transform="translate(272.061069, 548.599089)"><g><path d="M 5.445312 -66 C 4.539062 -66 4.125 -65.503906 4.125 -64.679688 L 4.125 -1.320312 C 4.125 -0.496094 4.539062 0 5.445312 0 L 14.023438 0 C 14.851562 0 15.34375 -0.496094 15.34375 -1.320312 L 15.34375 -64.679688 C 15.34375 -65.503906 14.851562 -66 14.023438 -66 Z M 5.445312 -66 "/></g></g></g><g fill="#000000" fill-opacity="1"><g transform="translate(291.523745, 548.599089)"><g><path d="M 30.277344 -57.75 C 29.371094 -57.75 28.957031 -57.253906 28.957031 -56.429688 L 28.957031 -25.164062 L 13.449219 -56.675781 C 13.117188 -57.417969 12.703125 -57.75 11.960938 -57.75 L 5.445312 -57.75 C 4.621094 -57.75 4.125 -57.253906 4.125 -56.429688 L 4.125 -1.320312 C 4.125 -0.496094 4.621094 0 5.445312 0 L 13.199219 0 C 14.105469 0 14.519531 -0.496094 14.519531 -1.320312 L 14.519531 -32.585938 L 30.03125 -1.074219 C 30.359375 -0.328125 30.773438 0 31.515625 0 L 38.03125 0 C 38.855469 0 39.351562 -0.496094 39.351562 -1.320312 L 39.351562 -56.429688 C 39.351562 -57.253906 38.855469 -57.75 38.03125 -57.75 Z M 30.277344 -57.75 "/></g></g></g><g fill="#000000" fill-opacity="1"><g transform="translate(334.984972, 548.599089)"><g><path d="M 4.125 -1.320312 C 4.125 -0.414062 4.539062 0 5.445312 0 L 25.246094 0 C 33 0 37.125 -4.125 37.125 -11.878906 L 37.125 -45.789062 C 37.125 -53.542969 33 -57.75 25.246094 -57.75 L 5.445312 -57.75 C 4.539062 -57.75 4.125 -57.253906 4.125 -56.429688 Z M 15.34375 -10.890625 L 15.34375 -46.859375 L 22.933594 -46.859375 C 25.078125 -46.859375 26.234375 -45.703125 26.234375 -43.476562 L 26.234375 -14.191406 C 26.234375 -11.960938 25.078125 -10.890625 22.933594 -10.890625 Z M 15.34375 -10.890625 "/></g></g></g><g fill="#000000" fill-opacity="1"><g transform="translate(376.21951, 548.599089)"><g><path d="M 5.445312 0 C 4.539062 0 4.125 -0.496094 4.125 -1.320312 L 4.125 -56.429688 C 4.125 -57.253906 4.539062 -57.75 5.445312 -57.75 L 14.023438 -57.75 C 14.851562 -57.75 15.34375 -57.253906 15.34375 -56.429688 L 15.34375 -1.320312 C 15.34375 -0.496094 14.851562 0 14.023438 0 Z M 5.445312 0 "/></g></g></g><g fill="#000000" fill-opacity="1"><g transform="translate(395.682186, 548.599089)"><g><path d="M 43.066406 0 C 44.054688 0 44.46875 -0.496094 44.21875 -1.402344 L 30.523438 -56.59375 C 30.359375 -57.417969 29.863281 -57.75 29.121094 -57.75 L 17.65625 -57.75 C 16.914062 -57.75 16.417969 -57.417969 16.253906 -56.59375 L 2.558594 -1.402344 C 2.308594 -0.496094 2.722656 0 3.628906 0 L 11.714844 0 C 12.457031 0 12.871094 -0.414062 13.035156 -1.15625 L 15.59375 -11.550781 L 31.101562 -11.550781 L 33.742188 -1.15625 C 33.90625 -0.414062 34.320312 0 35.0625 0 Z M 28.542969 -21.121094 L 18.148438 -21.121094 L 23.347656 -43.558594 Z M 28.542969 -21.121094 "/></g></g></g><g fill="#000000" fill-opacity="1"><g transform="translate(442.442169, 548.599089)"><g><path d="M 30.277344 -57.75 C 29.371094 -57.75 28.957031 -57.253906 28.957031 -56.429688 L 28.957031 -25.164062 L 13.449219 -56.675781 C 13.117188 -57.417969 12.703125 -57.75 11.960938 -57.75 L 5.445312 -57.75 C 4.621094 -57.75 4.125 -57.253906 4.125 -56.429688 L 4.125 -1.320312 C 4.125 -0.496094 4.621094 0 5.445312 0 L 13.199219 0 C 14.105469 0 14.519531 -0.496094 14.519531 -1.320312 L 14.519531 -32.585938 L 30.03125 -1.074219 C 30.359375 -0.328125 30.773438 0 31.515625 0 L 38.03125 0 C 38.855469 0 39.351562 -0.496094 39.351562 -1.320312 L 39.351562 -56.429688 C 39.351562 -57.253906 38.855469 -57.75 38.03125 -57.75 Z M 30.277344 -57.75 "/></g></g></g><g fill="#000000" fill-opacity="1"><g transform="translate(485.903396, 548.599089)"><g><path d="M 16.003906 -57.75 C 8.332031 -57.75 4.125 -53.625 4.125 -45.871094 L 4.125 -31.597656 C 4.125 -30.03125 4.867188 -29.039062 6.351562 -28.542969 L 26.152344 -22.109375 L 26.152344 -13.777344 C 26.152344 -11.550781 24.996094 -10.476562 22.851562 -10.476562 L 18.398438 -10.476562 C 16.335938 -10.476562 15.097656 -11.550781 15.097656 -13.777344 L 15.097656 -17.242188 C 15.097656 -18.148438 14.683594 -18.5625 13.777344 -18.5625 L 5.445312 -18.5625 C 4.621094 -18.5625 4.125 -18.148438 4.125 -17.242188 L 4.125 -11.878906 C 4.125 -4.125 8.332031 0 16.003906 0 L 25.246094 0 C 33 0 37.125 -4.125 37.125 -11.878906 L 37.125 -27.390625 C 37.125 -28.957031 36.382812 -29.949219 34.980469 -30.441406 L 15.015625 -36.878906 L 15.015625 -43.890625 C 15.015625 -46.035156 16.253906 -47.191406 18.316406 -47.191406 L 22.851562 -47.191406 C 25.078125 -47.191406 26.152344 -46.035156 26.152344 -43.890625 L 26.152344 -40.425781 C 26.152344 -39.601562 26.648438 -39.105469 27.472656 -39.105469 L 35.804688 -39.105469 C 36.710938 -39.105469 37.125 -39.601562 37.125 -40.425781 L 37.125 -45.871094 C 37.125 -53.625 33 -57.75 25.246094 -57.75 Z M 16.003906 -57.75 "/></g></g></g><g clip-path="url(#baf992294f)"><path fill="#ffa010" d="M 305.015625 234.285156 C 304.039062 236.714844 302.9375 239.082031 301.714844 241.398438 C 300.496094 243.710938 299.15625 245.957031 297.703125 248.132812 C 296.25 250.304688 294.6875 252.402344 293.015625 254.414062 C 291.34375 256.429688 289.574219 258.351562 287.707031 260.183594 C 285.835938 262.015625 283.878906 263.742188 281.832031 265.371094 C 279.785156 267 277.65625 268.519531 275.453125 269.929688 C 273.246094 271.339844 270.976562 272.628906 268.636719 273.804688 C 266.300781 274.980469 263.90625 276.03125 261.460938 276.957031 C 261.527344 256.707031 283.609375 234.828125 305.015625 234.285156 Z M 260.78125 531.355469 C 245.96875 512.871094 226.128906 501.933594 211.246094 508.863281 C 223.476562 533.257812 248.347656 541.953125 260.78125 531.355469 Z M 237.609375 495.476562 C 227.214844 475.09375 210.023438 460.550781 194.054688 464.355469 C 201.191406 490.3125 223.410156 503.425781 237.609375 495.476562 Z M 222.527344 456.476562 C 216.410156 434.867188 202.140625 417.203125 186.039062 417.878906 C 188.007812 444.515625 207.035156 461.433594 222.527344 456.476562 Z M 215.730469 415.707031 C 213.964844 393.417969 203.636719 373.308594 187.398438 370.792969 C 183.933594 397.359375 199.628906 417.746094 215.460938 415.707031 Z M 216.75 374.394531 C 219.265625 352.175781 213.082031 330.296875 197.726562 324.65625 C 189.027344 350.203125 200.308594 373.035156 216.480469 374.394531 Z M 225.71875 333.625 C 232.515625 312.222656 231.019531 289.253906 217.089844 280.625 C 203.296875 304.679688 209.886719 329.414062 225.449219 333.898438 Z M 242.503906 295.4375 C 253.644531 275.53125 257.246094 252.292969 245.355469 241.082031 C 226.808594 262.28125 228.097656 288.101562 242.503906 295.4375 Z M 252.21875 301.011719 C 266.761719 308.621094 285.445312 301.554688 298.085938 287.421875 C 286.328125 276.414062 263.566406 281.304688 252.21875 301.144531 Z M 236.117188 337.429688 C 251.878906 342.050781 268.730469 331.65625 277.902344 315.753906 C 264.109375 307.125 243.113281 315.824219 236.117188 337.429688 Z M 227.621094 375.753906 C 243.929688 377.179688 258.402344 363.792969 264.179688 346.738281 C 248.957031 340.964844 230.273438 353.601562 227.621094 375.753906 Z M 226.808594 414.824219 C 243.046875 413.054688 254.734375 397.089844 257.042969 379.355469 C 240.871094 376.976562 225.039062 392.605469 226.808594 414.824219 Z M 233.601562 453.484375 C 249.230469 448.523438 257.585938 430.519531 256.363281 412.714844 C 239.851562 413.261719 227.417969 431.878906 233.601562 453.484375 Z M 247.871094 490.382812 C 262.207031 482.429688 266.691406 463.203125 262.070312 445.535156 C 245.96875 449.273438 237.339844 470.132812 247.597656 490.382812 Z M 269.683594 524.355469 C 282.117188 513.6875 282.320312 493.304688 274.234375 476.792969 C 259.148438 483.789062 254.871094 506.078125 269.410156 524.355469 Z M 303.65625 560.980469 C 301.078125 559.050781 298.542969 557.0625 296.058594 555.011719 C 293.574219 552.964844 291.140625 550.859375 288.753906 548.695312 C 286.371094 546.53125 284.035156 544.308594 281.757812 542.035156 C 279.476562 539.761719 277.253906 537.433594 275.082031 535.054688 C 272.914062 532.671875 270.800781 530.242188 268.746094 527.761719 C 266.691406 525.28125 264.699219 522.753906 262.761719 520.179688 C 260.828125 517.605469 258.957031 514.984375 257.144531 512.324219 C 255.335938 509.660156 253.589844 506.953125 251.90625 504.207031 C 250.222656 501.460938 248.609375 498.675781 247.058594 495.855469 C 245.507812 493.03125 244.023438 490.171875 242.609375 487.28125 C 241.195312 484.386719 239.847656 481.460938 238.574219 478.503906 C 237.296875 475.546875 236.089844 472.5625 234.957031 469.546875 C 233.820312 466.535156 232.757812 463.496094 231.769531 460.429688 C 230.777344 457.367188 229.859375 454.28125 229.015625 451.171875 C 228.171875 448.0625 227.402344 444.9375 226.707031 441.792969 C 226.007812 438.648438 225.386719 435.488281 224.84375 432.316406 C 224.296875 429.140625 223.824219 425.957031 223.429688 422.761719 C 223.035156 419.5625 222.714844 416.359375 222.46875 413.148438 C 222.226562 409.9375 222.058594 406.722656 221.96875 403.503906 C 221.878906 400.285156 221.863281 397.0625 221.921875 393.84375 C 221.984375 390.625 222.121094 387.40625 222.335938 384.195312 C 222.550781 380.980469 222.839844 377.773438 223.207031 374.574219 C 223.570312 371.375 224.011719 368.183594 224.53125 365.003906 C 225.046875 361.828125 225.640625 358.660156 226.304688 355.511719 C 226.972656 352.359375 227.714844 349.226562 228.53125 346.113281 C 229.347656 342.996094 230.234375 339.902344 231.195312 336.828125 C 232.160156 333.753906 233.195312 330.707031 234.300781 327.679688 C 235.40625 324.65625 236.585938 321.660156 237.832031 318.691406 C 239.082031 315.722656 240.402344 312.785156 241.789062 309.878906 C 243.175781 306.972656 244.632812 304.101562 246.15625 301.265625 C 247.679688 298.425781 249.273438 295.628906 250.929688 292.867188 C 252.585938 290.105469 254.304688 287.382812 256.09375 284.703125 C 254.234375 287.390625 252.445312 290.121094 250.71875 292.894531 C 248.992188 295.667969 247.332031 298.480469 245.738281 301.332031 C 244.148438 304.183594 242.621094 307.070312 241.167969 309.996094 C 239.710938 312.917969 238.324219 315.875 237.007812 318.863281 C 235.695312 321.855469 234.449219 324.875 233.277344 327.921875 C 232.105469 330.972656 231.007812 334.046875 229.980469 337.148438 C 228.953125 340.25 228.003906 343.371094 227.125 346.519531 C 226.246094 349.664062 225.445312 352.828125 224.714844 356.015625 C 223.988281 359.199219 223.335938 362.398438 222.761719 365.613281 C 222.1875 368.828125 221.6875 372.054688 221.265625 375.292969 C 220.839844 378.535156 220.496094 381.78125 220.226562 385.035156 C 219.960938 388.292969 219.769531 391.550781 219.65625 394.816406 C 219.542969 398.082031 219.503906 401.34375 219.546875 404.613281 C 219.585938 407.878906 219.707031 411.140625 219.902344 414.402344 C 220.097656 417.660156 220.371094 420.914062 220.722656 424.164062 C 221.074219 427.410156 221.5 430.648438 222.007812 433.875 C 222.511719 437.101562 223.089844 440.316406 223.75 443.515625 C 224.40625 446.714844 225.136719 449.898438 225.945312 453.0625 C 226.753906 456.226562 227.636719 459.371094 228.59375 462.496094 C 229.550781 465.617188 230.582031 468.714844 231.6875 471.789062 C 232.789062 474.863281 233.96875 477.910156 235.214844 480.929688 C 236.464844 483.945312 237.785156 486.933594 239.175781 489.886719 C 240.566406 492.84375 242.027344 495.765625 243.554688 498.652344 C 245.085938 501.539062 246.683594 504.386719 248.347656 507.195312 C 250.011719 510.007812 251.742188 512.777344 253.539062 515.503906 C 255.332031 518.230469 257.195312 520.917969 259.117188 523.554688 C 261.039062 526.195312 263.027344 528.789062 265.070312 531.335938 C 267.117188 533.878906 269.226562 536.375 271.390625 538.820312 C 273.554688 541.269531 275.777344 543.660156 278.054688 546 C 280.332031 548.339844 282.667969 550.625 285.054688 552.855469 C 287.441406 555.085938 289.878906 557.257812 292.371094 559.371094 C 294.859375 561.484375 297.398438 563.539062 299.988281 565.53125 C 301.890625 567.027344 304.199219 567.164062 305.152344 565.53125 C 306.101562 563.902344 305.152344 562.132812 303.519531 560.707031 Z M 678.59375 234.285156 C 679.570312 236.714844 680.667969 239.082031 681.890625 241.398438 C 683.113281 243.710938 684.449219 245.957031 685.90625 248.132812 C 687.359375 250.304688 688.921875 252.402344 690.589844 254.414062 C 692.261719 256.429688 694.03125 258.351562 695.898438 260.183594 C 697.769531 262.015625 699.726562 263.742188 701.777344 265.371094 C 703.824219 267 705.949219 268.519531 708.15625 269.929688 C 710.359375 271.339844 712.628906 272.628906 714.96875 273.804688 C 717.308594 274.980469 719.699219 276.03125 722.148438 276.957031 C 722.078125 256.707031 699.996094 234.828125 678.59375 234.285156 Z M 772.359375 508.863281 C 757.480469 502.066406 737.640625 513.144531 722.960938 531.355469 C 735.261719 541.953125 760.128906 533.257812 772.359375 508.863281 Z M 789.550781 464.355469 C 773.582031 460.550781 756.390625 475.230469 745.996094 495.476562 C 760.199219 503.425781 782.417969 490.3125 789.550781 464.355469 Z M 797.570312 417.746094 C 781.191406 417.066406 767.195312 434.730469 761.082031 456.339844 C 776.574219 461.433594 795.597656 444.515625 797.570312 417.746094 Z M 796.480469 370.65625 C 780.242188 373.171875 769.914062 393.285156 768.148438 415.570312 C 783.980469 417.746094 799.675781 397.359375 796.480469 370.792969 Z M 786.152344 324.65625 C 770.796875 330.296875 764.613281 352.175781 767.128906 374.394531 C 783.300781 373.035156 794.578125 350.203125 786.152344 324.65625 Z M 766.789062 280.898438 C 753.199219 289.527344 751.296875 312.492188 758.160156 333.898438 C 773.71875 329.414062 780.308594 304.679688 766.789062 280.898438 Z M 738.25 241.082031 C 726.359375 252.359375 729.960938 275.597656 741.105469 295.4375 C 755.507812 288.101562 756.800781 262.28125 738.25 241.082031 Z M 685.523438 287.625 C 698.160156 301.691406 716.847656 308.757812 731.386719 301.214844 C 720.039062 281.304688 697.277344 276.414062 685.523438 287.625 Z M 705.90625 315.753906 C 715.082031 331.65625 731.929688 342.050781 747.695312 337.429688 C 740.492188 315.824219 719.496094 307.125 705.703125 315.824219 Z M 719.496094 346.738281 C 725.273438 363.792969 739.882812 377.179688 756.050781 375.753906 C 753.335938 353.601562 734.648438 340.964844 719.429688 346.738281 Z M 726.765625 379.355469 C 729.078125 397.089844 740.765625 413.328125 757.003906 414.824219 C 758.566406 392.605469 742.734375 376.976562 726.699219 379.355469 Z M 727.582031 412.648438 C 726.359375 430.519531 734.378906 448.523438 750.34375 453.417969 C 756.1875 431.878906 743.753906 413.261719 727.515625 412.648438 Z M 721.875 445.535156 C 717.253906 462.929688 721.875 482.429688 736.074219 490.382812 C 746.269531 470.132812 737.640625 449.273438 721.808594 445.535156 Z M 709.710938 476.996094 C 701.625 493.304688 701.832031 513.6875 714.265625 524.558594 C 728.738281 506.078125 724.457031 483.789062 709.644531 476.996094 Z M 680.289062 561.046875 C 678.457031 562.472656 677.707031 564.648438 678.660156 565.871094 C 679.609375 567.09375 681.921875 567.027344 683.824219 565.871094 C 686.417969 563.878906 688.960938 561.824219 691.457031 559.707031 C 693.953125 557.59375 696.398438 555.421875 698.789062 553.191406 C 701.183594 550.957031 703.519531 548.671875 705.804688 546.332031 C 708.085938 543.988281 710.316406 541.59375 712.484375 539.144531 C 714.65625 536.695312 716.765625 534.199219 718.816406 531.652344 C 720.867188 529.101562 722.855469 526.507812 724.785156 523.863281 C 726.710938 521.222656 728.574219 518.535156 730.375 515.800781 C 732.175781 513.070312 733.910156 510.296875 735.578125 507.484375 C 737.246094 504.671875 738.847656 501.820312 740.378906 498.929688 C 741.910156 496.039062 743.375 493.113281 744.769531 490.152344 C 746.160156 487.195312 747.484375 484.203125 748.734375 481.179688 C 749.984375 478.160156 751.164062 475.109375 752.269531 472.03125 C 753.378906 468.953125 754.410156 465.847656 755.367188 462.722656 C 756.328125 459.59375 757.210938 456.445312 758.019531 453.273438 C 758.828125 450.105469 759.5625 446.917969 760.21875 443.714844 C 760.878906 440.511719 761.460938 437.292969 761.964844 434.058594 C 762.46875 430.828125 762.894531 427.585938 763.246094 424.332031 C 763.597656 421.082031 763.871094 417.820312 764.066406 414.554688 C 764.261719 411.289062 764.378906 408.023438 764.417969 404.75 C 764.457031 401.480469 764.421875 398.210938 764.304688 394.941406 C 764.191406 391.671875 763.996094 388.40625 763.726562 385.148438 C 763.457031 381.886719 763.109375 378.636719 762.683594 375.394531 C 762.257812 372.148438 761.757812 368.917969 761.175781 365.699219 C 760.597656 362.476562 759.945312 359.273438 759.214844 356.085938 C 758.480469 352.898438 757.675781 349.726562 756.792969 346.578125 C 755.910156 343.429688 754.957031 340.300781 753.925781 337.195312 C 752.894531 334.089844 751.792969 331.011719 750.613281 327.960938 C 749.4375 324.910156 748.1875 321.886719 746.867188 318.894531 C 745.546875 315.898438 744.15625 312.941406 742.695312 310.011719 C 741.234375 307.085938 739.707031 304.195312 738.105469 301.34375 C 736.507812 298.488281 734.84375 295.675781 733.109375 292.898438 C 731.378906 290.125 729.582031 287.390625 727.71875 284.703125 C 729.503906 287.382812 731.226562 290.105469 732.882812 292.867188 C 734.539062 295.628906 736.128906 298.425781 737.652344 301.265625 C 739.179688 304.101562 740.632812 306.972656 742.023438 309.878906 C 743.410156 312.785156 744.726562 315.722656 745.976562 318.691406 C 747.226562 321.660156 748.402344 324.65625 749.511719 327.679688 C 750.617188 330.707031 751.652344 333.753906 752.613281 336.828125 C 753.574219 339.902344 754.464844 342.996094 755.28125 346.113281 C 756.097656 349.226562 756.835938 352.359375 757.503906 355.511719 C 758.171875 358.660156 758.761719 361.828125 759.28125 365.003906 C 759.796875 368.183594 760.238281 371.375 760.605469 374.574219 C 760.96875 377.773438 761.261719 380.980469 761.472656 384.195312 C 761.6875 387.40625 761.824219 390.625 761.886719 393.84375 C 761.949219 397.0625 761.933594 400.285156 761.84375 403.503906 C 761.75 406.722656 761.585938 409.9375 761.339844 413.148438 C 761.097656 416.359375 760.777344 419.5625 760.382812 422.761719 C 759.988281 425.957031 759.515625 429.140625 758.96875 432.316406 C 758.421875 435.488281 757.800781 438.648438 757.105469 441.792969 C 756.410156 444.9375 755.640625 448.0625 754.792969 451.171875 C 753.949219 454.28125 753.03125 457.367188 752.042969 460.429688 C 751.050781 463.496094 749.988281 466.535156 748.855469 469.546875 C 747.71875 472.5625 746.515625 475.546875 745.238281 478.503906 C 743.960938 481.460938 742.617188 484.386719 741.203125 487.28125 C 739.785156 490.171875 738.304688 493.03125 736.753906 495.855469 C 735.203125 498.675781 733.585938 501.460938 731.90625 504.207031 C 730.222656 506.953125 728.476562 509.660156 726.664062 512.324219 C 724.855469 514.984375 722.984375 517.605469 721.046875 520.179688 C 719.113281 522.753906 717.117188 525.28125 715.0625 527.761719 C 713.011719 530.242188 710.898438 532.671875 708.726562 535.054688 C 706.558594 537.433594 704.332031 539.761719 702.054688 542.035156 C 699.773438 544.308594 697.441406 546.53125 695.054688 548.695312 C 692.671875 550.859375 690.234375 552.964844 687.75 555.011719 C 685.265625 557.0625 682.734375 559.050781 680.15625 560.980469 Z M 680.289062 561.046875 " fill-opacity="1" fill-rule="nonzero"/></g></svg>